<svg width="18" height="17" viewBox="0 0 18 17" fill="none" xmlns="http://www.w3.org/2000/svg">
<path d="M16.471 0.5C16.931 0.5 17.3044 0.873333 17.3044 1.33333V13C17.3044 13.46 16.931 13.8333 16.471 13.8333H4.3502L0.637695 16.75V1.33333C0.637695 0.873333 1.01103 0.5 1.47103 0.5H16.471ZM15.6377 2.16667H2.30436V13.3208L3.77353 12.1667H15.6377V2.16667ZM7.73353 4.17667L8.10603 4.75C6.71603 5.5025 6.7402 6.71 6.7402 6.97C6.86936 6.95333 7.0052 6.95 7.1402 6.9625C7.89186 7.0325 8.48436 7.65 8.48436 8.41667C8.48436 9.22167 7.83103 9.875 7.02603 9.875C6.57853 9.875 6.15103 9.67083 5.88103 9.38333C5.45186 8.92833 5.22103 8.41667 5.22103 7.5875C5.22103 6.12917 6.24436 4.8225 7.73353 4.17667ZM11.9002 4.17667L12.2727 4.75C10.8827 5.5025 10.9069 6.71 10.9069 6.97C11.036 6.95333 11.1719 6.95 11.3069 6.9625C12.0585 7.0325 12.651 7.65 12.651 8.41667C12.651 9.22167 11.9977 9.875 11.1927 9.875C10.7452 9.875 10.3177 9.67083 10.0477 9.38333C9.61853 8.92833 9.3877 8.41667 9.3877 7.5875C9.3877 6.12917 10.411 4.8225 11.9002 4.17667Z" fill="black"/>
</svg>
