<svg width="20" height="16" viewBox="0 0 20 16" fill="none" xmlns="http://www.w3.org/2000/svg">
<path d="M1.63704 15.4999H6.63704C6.85806 15.4999 7.07002 15.4121 7.2263 15.2559C7.38258 15.0996 7.47038 14.8876 7.47038 14.6666C7.47038 14.4456 7.38258 14.2336 7.2263 14.0773C7.07002 13.9211 6.85806 13.8333 6.63704 13.8333H2.52954C2.73176 12.4456 3.42632 11.177 4.48642 10.259C5.54651 9.34107 6.90141 8.83501 8.30371 8.83327C9.28494 8.84178 10.2382 8.50672 10.9984 7.88617C11.7585 7.26561 12.2776 6.39867 12.4656 5.43559C12.6536 4.47251 12.4988 3.47399 12.0279 2.61308C11.5571 1.75217 10.7998 1.08313 9.88747 0.721912C8.9751 0.360695 7.96511 0.330064 7.03254 0.63533C6.09996 0.940596 5.30357 1.56252 4.7814 2.39331C4.25922 3.2241 4.04417 4.21141 4.1735 5.18411C4.30284 6.15682 4.76842 7.05362 5.48954 7.7191C4.10638 8.28021 2.92185 9.24084 2.08722 10.4783C1.25258 11.7158 0.805725 13.174 0.803711 14.6666C0.803711 14.8876 0.891508 15.0996 1.04779 15.2559C1.20407 15.4121 1.41603 15.4999 1.63704 15.4999ZM8.30371 2.1666C8.79816 2.1666 9.28151 2.31322 9.69264 2.58793C10.1038 2.86263 10.4242 3.25308 10.6134 3.70989C10.8026 4.16671 10.8521 4.66937 10.7557 5.15433C10.6592 5.63928 10.4211 6.08474 10.0715 6.43437C9.72185 6.784 9.27639 7.0221 8.79144 7.11856C8.30648 7.21503 7.80382 7.16552 7.347 6.9763C6.89019 6.78708 6.49974 6.46665 6.22504 6.05553C5.95033 5.6444 5.80371 5.16105 5.80371 4.6666C5.80371 4.00356 6.0671 3.36767 6.53594 2.89883C7.00479 2.42999 7.64067 2.1666 8.30371 2.1666ZM16.8095 5.7441C16.6533 5.58787 16.4413 5.50011 16.2204 5.50011C15.9994 5.50011 15.7875 5.58787 15.6312 5.7441L10.4229 10.9524C10.3318 11.0442 10.2631 11.1557 10.222 11.2783L9.18038 14.4033C9.13867 14.5285 9.12731 14.6618 9.14721 14.7923C9.16711 14.9227 9.21771 15.0466 9.29485 15.1537C9.37199 15.2608 9.47345 15.348 9.5909 15.4082C9.70834 15.4684 9.8384 15.4998 9.97038 15.4999C10.0599 15.4998 10.1487 15.4855 10.2337 15.4574L13.3587 14.4158C13.4815 14.3748 13.5931 14.3057 13.6845 14.2141L18.8929 9.00577C19.0491 8.84949 19.1369 8.63757 19.1369 8.4166C19.1369 8.19563 19.0491 7.98371 18.8929 7.82743L16.8095 5.7441ZM12.6429 12.8966L11.2854 13.3491L11.7379 11.9916L16.2204 7.5116L17.1254 8.4166L12.6429 12.8966Z" fill="black"/>
</svg>
