<svg width="18" height="18" viewBox="0 0 18 18" fill="none" xmlns="http://www.w3.org/2000/svg">
<path d="M15.75 4.5H14.25M15.75 9H12M15.75 13.5H12M5.25 15V10.1709C5.25 10.0149 5.25 9.9369 5.23468 9.86228C5.2211 9.79613 5.19863 9.73207 5.16789 9.67185C5.13323 9.60405 5.08451 9.54315 4.98704 9.42127L2.51296 6.3287C2.4155 6.20687 2.36677 6.14596 2.33211 6.07813C2.30137 6.01795 2.2789 5.95389 2.26532 5.88769C2.25 5.81308 2.25 5.73508 2.25 5.57906V4.2C2.25 3.77996 2.25 3.56994 2.33174 3.40951C2.40365 3.26839 2.51839 3.15365 2.65951 3.08174C2.81994 3 3.02996 3 3.45 3H10.05C10.4701 3 10.6801 3 10.8405 3.08174C10.9817 3.15365 11.0963 3.26839 11.1682 3.40951C11.25 3.56994 11.25 3.77996 11.25 4.2V5.57906C11.25 5.73508 11.25 5.81308 11.2347 5.88769C11.2211 5.95389 11.1986 6.01795 11.1679 6.07813C11.1332 6.14596 11.0845 6.20687 10.987 6.3287L8.51295 9.42127C8.41553 9.54315 8.36677 9.60405 8.33212 9.67185C8.30137 9.73207 8.27888 9.79613 8.2653 9.86228C8.25 9.9369 8.25 10.0149 8.25 10.1709V12.75L5.25 15Z" stroke="#807A7A" stroke-linecap="round" stroke-linejoin="round"/>
</svg>
