<svg width="19" height="19" viewBox="0 0 19 19" fill="none" xmlns="http://www.w3.org/2000/svg">
<path d="M14.8044 5.83337H18.971V7.50004H14.8044V5.83337ZM13.1377 10H18.971V11.6667H13.1377V10ZM15.6377 14.1667H18.971V15.8334H15.6377V14.1667ZM0.637695 18.3334C0.637695 16.5653 1.34007 14.8696 2.59032 13.6193C3.84056 12.3691 5.53625 11.6667 7.30436 11.6667C9.07247 11.6667 10.7682 12.3691 12.0184 13.6193C13.2687 14.8696 13.971 16.5653 13.971 18.3334H12.3044C12.3044 17.0073 11.7776 15.7355 10.8399 14.7978C9.90221 13.8602 8.63045 13.3334 7.30436 13.3334C5.97828 13.3334 4.70651 13.8602 3.76883 14.7978C2.83115 15.7355 2.30436 17.0073 2.30436 18.3334H0.637695ZM7.30436 10.8334C4.54186 10.8334 2.30436 8.59587 2.30436 5.83337C2.30436 3.07087 4.54186 0.833374 7.30436 0.833374C10.0669 0.833374 12.3044 3.07087 12.3044 5.83337C12.3044 8.59587 10.0669 10.8334 7.30436 10.8334ZM7.30436 9.16671C9.14603 9.16671 10.6377 7.67504 10.6377 5.83337C10.6377 3.99171 9.14603 2.50004 7.30436 2.50004C5.4627 2.50004 3.97103 3.99171 3.97103 5.83337C3.97103 7.67504 5.4627 9.16671 7.30436 9.16671Z" fill="black"/>
</svg>
