<svg width="25" height="25" viewBox="0 0 25 25" fill="none" xmlns="http://www.w3.org/2000/svg">
<path d="M14.3496 3.90424L14.35 3.90452L20.1099 7.93442C20.5387 8.23461 20.959 8.73876 21.2726 9.33959C21.5863 9.94041 21.76 10.5739 21.76 11.1V17.88C21.76 20.0158 20.0258 21.75 17.89 21.75H7.10999C4.97631 21.75 3.23999 20.0079 3.23999 17.87V10.97C3.23999 10.4833 3.39682 9.88223 3.68285 9.30129C3.96868 8.72077 4.35159 8.22532 4.74126 7.92138L4.74143 7.92125L9.74936 4.01286C9.74969 4.0126 9.75003 4.01234 9.75036 4.01208C11.0006 3.04415 13.0492 2.99312 14.3496 3.90424ZM12.5 20C13.3242 20 14 19.3242 14 18.5V15.5C14 14.6758 13.3242 14 12.5 14C11.6758 14 11 14.6758 11 15.5V18.5C11 19.3242 11.6758 20 12.5 20Z" stroke="#9DB2CE" stroke-width="1.5"/>
</svg>
