<svg width="29" height="29" viewBox="0 0 29 29" fill="none" xmlns="http://www.w3.org/2000/svg">
<path d="M21.7503 10.875C21.7503 12.2098 20.6684 13.2917 19.3337 13.2917C17.9989 13.2917 16.917 12.2098 16.917 10.875C16.917 9.54035 17.9989 8.45837 19.3337 8.45837C20.6684 8.45837 21.7503 9.54035 21.7503 10.875Z" fill="#ABABAB"/>
<path fill-rule="evenodd" clip-rule="evenodd" d="M2.41699 9.66667C2.41699 6.32995 5.12194 3.625 8.45866 3.625H20.542C23.8787 3.625 26.5837 6.32995 26.5837 9.66667V19.3333C26.5837 22.67 23.8787 25.375 20.542 25.375H8.45866C5.12194 25.375 2.41699 22.67 2.41699 19.3333V9.66667ZM8.45866 6.04167C6.45663 6.04167 4.83366 7.66464 4.83366 9.66667V15.9958L6.66674 13.7961C8.21797 11.9347 11.1236 12.0899 12.4677 14.1061L14.204 16.7105C14.5665 17.2543 15.2957 17.4114 15.8499 17.0649L16.8606 16.4332C18.426 15.4549 20.4765 15.8091 21.623 17.2558L24.0362 20.3015C24.1214 19.9932 24.167 19.6686 24.167 19.3333V9.66667C24.167 7.66464 22.5441 6.04167 20.542 6.04167H8.45866Z" fill="#ABABAB"/>
</svg>
