<svg width="19" height="17" viewBox="0 0 19 17" fill="none" xmlns="http://www.w3.org/2000/svg">
    <path
        d="M14.3877 7.33329L18.0544 16.5H16.2585L15.2577 14H11.8494L10.8502 16.5H9.05519L12.721 7.33329H14.3877ZM7.30436 0.666626V2.33329H12.3044V3.99996H10.6644C10.0215 5.93502 8.99559 7.72081 7.6477 9.25079C8.24878 9.78713 8.90076 10.2636 9.59436 10.6733L8.96853 12.2383C8.07313 11.7305 7.23569 11.1266 6.47103 10.4375C4.98235 11.7847 3.2194 12.7935 1.30353 13.3941L0.856862 11.7866C2.49839 11.2632 4.01105 10.3994 5.29603 9.25163C4.34494 8.17491 3.55275 6.96768 2.94353 5.66663H4.81019C5.27465 6.52401 5.83158 7.32796 6.47103 8.06413C7.51278 6.86338 8.33378 5.48771 8.89603 4.00079L0.637695 3.99996V2.33329H5.6377V0.666626H7.30436ZM13.5544 9.73746L12.5152 12.3333H14.5919L13.5544 9.73746Z"
        fill="black" />
</svg>
