<svg width="19" height="21" viewBox="0 0 19 21" fill="none" xmlns="http://www.w3.org/2000/svg">
<path d="M6.30899 15.7778H3.09971C1.91032 15.7778 1.31563 15.7778 1.19051 15.6747C1.04994 15.5588 1.01559 15.4904 1.00036 15.296C0.98682 15.123 1.3513 14.4569 2.08028 13.1247C2.83294 11.7493 3.47204 9.74655 3.47204 6.91111C3.47204 5.34339 4.0695 3.83988 5.13297 2.73132C6.19646 1.62278 7.63884 1 9.14284 1C10.6468 1 12.0892 1.62278 13.1527 2.73132C14.2162 3.83988 14.8136 5.34339 14.8136 6.91111C14.8136 9.74655 15.4527 11.7493 16.2054 13.1247C16.9343 14.4569 17.2989 15.123 17.2854 15.296C17.2701 15.4904 17.2357 15.5588 17.0952 15.6747C16.9701 15.7778 16.3754 15.7778 15.186 15.7778H11.9782M6.30899 15.7778L6.30744 16.8333C6.30744 18.5823 7.57694 20 9.14284 20C10.7088 20 11.9782 18.5823 11.9782 16.8333V15.7778M6.30899 15.7778H11.9782" stroke="#00355A" stroke-width="1.5" stroke-linecap="round" stroke-linejoin="round"/>
</svg>
