<svg width="127" height="161" viewBox="0 0 127 161" fill="none" xmlns="http://www.w3.org/2000/svg">
<path d="M125.65 158.997L115.469 19.8371L85.2263 1.50281H1.9834L13.3619 158.997H125.65Z" fill="white"/>
<path d="M125.65 160.5H13.362C12.4637 160.5 11.8649 159.899 11.8649 159.298L0.486328 1.50281C0.486328 1.20225 0.486328 0.601124 0.785763 0.300562C1.38463 0.300562 1.68407 0 1.9835 0H85.2264C85.5259 0 85.8253 0 86.1248 0.300562L116.368 18.6348C116.667 18.9354 116.967 19.236 116.967 19.8371L126.848 158.997C126.848 159.298 126.848 159.899 126.548 160.199C126.249 160.199 125.95 160.5 125.65 160.5ZM14.8592 157.494H124.153L114.272 20.7388L84.927 3.00562H3.48068L14.8592 157.494Z" fill="#9DB2CE"/>
<path d="M115.469 19.8371L85.2256 1.50281L96.3047 25.5478L115.469 19.8371Z" fill="#EBEBEB"/>
<path d="M96.3052 27.0506C95.7063 27.0506 95.1074 26.75 95.1074 26.1489L84.0283 1.80337C83.7289 1.20225 84.0283 0.601124 84.3278 0C84.9266 0 85.5255 0 86.1244 0.300562L116.367 18.6348C116.966 18.9354 117.266 19.5365 116.966 20.1376C116.966 20.7388 116.367 21.0393 116.068 21.3399L96.904 27.3511C96.6046 27.0506 96.6046 27.0506 96.3052 27.0506ZM88.5199 5.10955L97.2035 24.0449L112.175 19.5365L88.5199 5.10955Z" fill="#9DB2CE"/>
<path d="M48.9951 72.4355C49.2946 76.0422 46.5996 78.7473 43.0064 78.7473C39.4132 78.7473 36.4188 76.0422 36.1194 72.4355C35.82 68.8287 38.5149 66.1237 42.1081 66.1237C45.7013 66.1237 48.6957 68.8287 48.9951 72.4355Z" fill="#9DB2CE"/>
<path d="M90.0176 72.4355C90.317 76.0422 87.6221 78.7473 84.0289 78.7473C80.4356 78.7473 77.4413 76.0422 77.1419 72.4355C76.8424 68.8287 79.5373 66.1237 83.1306 66.1237C86.7238 66.1237 90.0176 68.8287 90.0176 72.4355Z" fill="#9DB2CE"/>
<path d="M101.695 113.612C100.797 113.612 100.198 113.011 100.198 112.41C99.5992 102.191 83.4297 93.7754 64.5653 93.7754C51.989 93.7754 40.9099 97.3821 35.2206 103.393C32.8252 106.098 31.6274 109.104 31.9269 112.11C31.9269 113.011 31.328 113.612 30.7291 113.612C29.8308 113.612 29.2319 113.011 29.2319 112.41C28.9325 108.503 30.4297 104.896 33.424 101.59C39.4127 94.9776 51.6896 90.7698 64.8647 90.7698C85.5257 90.7698 102.594 100.087 103.492 112.11C103.192 113.011 102.594 113.612 101.695 113.612Z" fill="#9DB2CE"/>
<path d="M25.6385 59.5113C25.339 59.5113 25.0396 59.5113 24.7402 59.2107C24.1413 58.6096 24.1413 57.7079 24.7402 57.1068L31.0283 50.1939C31.6272 49.5928 32.5255 49.5928 33.1243 50.1939C33.7232 50.795 33.7232 51.6967 33.1243 52.2978L26.8362 59.2107C26.5368 59.5113 25.9379 59.5113 25.6385 59.5113Z" fill="#9DB2CE"/>
<path d="M98.7015 59.5113C98.4021 59.5113 98.1026 59.5113 97.8032 59.2107L90.3173 52.2978C89.7184 51.6967 89.7184 50.795 90.3173 50.1939C90.9162 49.5928 91.8145 49.5928 92.4134 50.1939L99.8992 57.1068C100.498 57.7079 100.498 58.6096 99.8992 59.2107C99.5998 59.5113 99.3004 59.5113 98.7015 59.5113Z" fill="#9DB2CE"/>
</svg>
