<svg width="17" height="20" viewBox="0 0 17 20" fill="none" xmlns="http://www.w3.org/2000/svg">
<ellipse cx="8.61399" cy="5.67153" rx="4.37986" ry="4.37986" stroke="#807A7A" stroke-width="1.5" stroke-linecap="round" stroke-linejoin="round"/>
<path fill-rule="evenodd" clip-rule="evenodd" d="M1.66664 16.1429C1.66546 15.835 1.73432 15.5309 1.86801 15.2535C2.28754 14.4145 3.47061 13.9698 4.4523 13.7684C5.1603 13.6173 5.87807 13.5164 6.60028 13.4663C7.93739 13.3489 9.28223 13.3489 10.6193 13.4663C11.3415 13.517 12.0592 13.6179 12.7673 13.7684C13.749 13.9698 14.9321 14.3725 15.3516 15.2535C15.6205 15.8189 15.6205 16.4753 15.3516 17.0407C14.9321 17.9217 13.749 18.3245 12.7673 18.5174C12.0602 18.6748 11.3421 18.7786 10.6193 18.8279C9.53105 18.9202 8.43766 18.937 7.34704 18.8782C7.09532 18.8782 6.852 18.8782 6.60028 18.8279C5.8802 18.7792 5.16492 18.6754 4.46069 18.5174C3.47061 18.3245 2.29593 17.9217 1.86801 17.0407C1.73501 16.7601 1.66622 16.4534 1.66664 16.1429Z" stroke="#807A7A" stroke-width="1.5" stroke-linecap="round" stroke-linejoin="round"/>
</svg>
