<svg width="20" height="11" viewBox="0 0 20 11" fill="none" xmlns="http://www.w3.org/2000/svg">
<path d="M1.65039 9.17969V10.8203H18.291V9.17969H1.65039ZM2.58789 5.78125L1.49414 5.15625L2.23633 3.94531H0.791016V2.69531H2.23633L1.49414 1.44531L2.58789 0.820312L3.29102 2.07031L3.99414 0.820312L5.08789 1.44531L4.38477 2.69531H5.79102V3.94531H4.38477L5.08789 5.15625L3.99414 5.78125L3.29102 4.57031L2.58789 5.78125ZM8.17383 5.15625L8.87695 3.94531H7.4707V2.69531H8.87695L8.17383 1.44531L9.26758 0.820312L9.9707 2.07031L10.6738 0.820312L11.7676 1.44531L11.0645 2.69531H12.4707V3.94531H11.0645L11.7676 5.15625L10.6738 5.78125L9.9707 4.57031L9.26758 5.78125L8.17383 5.15625ZM19.1504 2.69531V3.94531H17.7051L18.4473 5.15625L17.3535 5.78125L16.6504 4.57031L15.9473 5.78125L14.8535 5.15625L15.5566 3.94531H14.1504V2.69531H15.5566L14.8535 1.44531L15.9473 0.820312L16.6504 2.07031L17.3535 0.820312L18.4473 1.44531L17.7051 2.69531H19.1504Z" fill="black"/>
</svg>
