<svg width="16" height="19" viewBox="0 0 16 19" fill="none" xmlns="http://www.w3.org/2000/svg">
<path d="M2.9707 6.66665V5.83331C2.9707 4.50723 3.49749 3.23546 4.43517 2.29778C5.37285 1.3601 6.64462 0.833313 7.9707 0.833313C9.29679 0.833313 10.5686 1.3601 11.5062 2.29778C12.4439 3.23546 12.9707 4.50723 12.9707 5.83331V6.66665H14.6374C14.8584 6.66665 15.0703 6.75444 15.2266 6.91072C15.3829 7.067 15.4707 7.27897 15.4707 7.49998V17.5C15.4707 17.721 15.3829 17.933 15.2266 18.0892C15.0703 18.2455 14.8584 18.3333 14.6374 18.3333H1.30404C1.08302 18.3333 0.871061 18.2455 0.714781 18.0892C0.5585 17.933 0.470703 17.721 0.470703 17.5V7.49998C0.470703 7.27897 0.5585 7.067 0.714781 6.91072C0.871061 6.75444 1.08302 6.66665 1.30404 6.66665H2.9707ZM13.804 8.33331H2.13737V16.6666H13.804V8.33331ZM7.13737 13.11C6.81963 12.9265 6.57131 12.6434 6.4309 12.3044C6.2905 11.9654 6.26587 11.5896 6.36083 11.2352C6.45579 10.8808 6.66503 10.5677 6.9561 10.3443C7.24717 10.121 7.60381 9.99994 7.9707 9.99994C8.33759 9.99994 8.69423 10.121 8.9853 10.3443C9.27638 10.5677 9.48562 10.8808 9.58058 11.2352C9.67554 11.5896 9.65091 11.9654 9.5105 12.3044C9.3701 12.6434 9.12177 12.9265 8.80404 13.11V15H7.13737V13.11ZM4.63737 6.66665H11.304V5.83331C11.304 4.94926 10.9528 4.10141 10.3277 3.47629C9.7026 2.85117 8.85476 2.49998 7.9707 2.49998C7.08665 2.49998 6.2388 2.85117 5.61368 3.47629C4.98856 4.10141 4.63737 4.94926 4.63737 5.83331V6.66665Z" fill="black"/>
</svg>
