<svg width="30" height="20" viewBox="0 0 30 20" fill="none" xmlns="http://www.w3.org/2000/svg">
<path d="M25.2221 9.10148C25.2221 9.10148 25.7783 1.60748 18.9126 0.752908C13.0283 0.152051 11.2369 5.62062 11.2369 5.62062C11.2369 5.62062 9.46519 3.91662 7.06091 5.30862C4.90862 6.63719 5.28919 9.06977 5.28919 9.06977C5.28919 9.06977 0.509766 9.99891 0.509766 14.8709C0.616051 19.7369 5.69891 19.7858 5.69891 19.7858H13.7141V14.6429H11.1426L15.4283 10.3572L19.7141 14.6429H17.1426V19.7858H24.4001C24.4001 19.7858 29.1315 19.7909 29.7958 15.1615C30.1121 10.0992 25.2221 9.10148 25.2221 9.10148Z" fill="white"/>
</svg>
